<svg xmlns="http://www.w3.org/2000/svg" xmlns:xlink="http://www.w3.org/1999/xlink" width="350" zoomAndPan="magnify" viewBox="0 0 262.5 42.75" height="57" preserveAspectRatio="xMidYMid meet" version="1.0"><defs><g/><clipPath id="f5cd446d7a"><path d="M 15 32 L 23 32 L 23 42.5 L 15 42.5 Z M 15 32 " clip-rule="nonzero"/></clipPath><clipPath id="fff17e5ac7"><path d="M 117 32 L 125 32 L 125 42.5 L 117 42.5 Z M 117 32 " clip-rule="nonzero"/></clipPath><clipPath id="08bfb9db16"><path d="M 174 32 L 182 32 L 182 42.5 L 174 42.5 Z M 174 32 " clip-rule="nonzero"/></clipPath><clipPath id="4b8b0a4c87"><path d="M 222 32 L 230 32 L 230 42.5 L 222 42.5 Z M 222 32 " clip-rule="nonzero"/></clipPath></defs><g fill="#990f66" fill-opacity="1"><g transform="translate(1.735541, 19.706752)"><g><path d="M 1.40625 -19.40625 L 7.03125 -19.40625 C 9.726562 -19.40625 12.035156 -18.484375 13.953125 -16.640625 C 15.867188 -14.804688 16.828125 -12.5 16.828125 -9.71875 C 16.828125 -6.925781 15.875 -4.609375 13.96875 -2.765625 C 12.0625 -0.921875 9.75 0 7.03125 0 L 1.40625 0 Z M 5.828125 -3.953125 L 6.515625 -3.953125 C 8.128906 -3.953125 9.453125 -4.492188 10.484375 -5.578125 C 11.515625 -6.671875 12.035156 -8.039062 12.046875 -9.6875 C 12.046875 -11.34375 11.53125 -12.71875 10.5 -13.8125 C 9.476562 -14.90625 8.148438 -15.453125 6.515625 -15.453125 L 5.828125 -15.453125 Z M 5.828125 -3.953125 "/></g></g></g><g fill="#990f66" fill-opacity="1"><g transform="translate(19.164726, 19.706752)"><g><path d="M 1.40625 0 L 1.40625 -12.078125 L 5.578125 -12.078125 L 5.578125 -10.328125 L 5.625 -10.328125 C 5.65625 -10.390625 5.703125 -10.46875 5.765625 -10.5625 C 5.835938 -10.65625 5.992188 -10.816406 6.234375 -11.046875 C 6.472656 -11.285156 6.722656 -11.5 6.984375 -11.6875 C 7.253906 -11.882812 7.597656 -12.054688 8.015625 -12.203125 C 8.441406 -12.347656 8.875 -12.421875 9.3125 -12.421875 C 9.769531 -12.421875 10.21875 -12.359375 10.65625 -12.234375 C 11.09375 -12.109375 11.414062 -11.984375 11.625 -11.859375 L 11.953125 -11.671875 L 10.21875 -8.140625 C 9.695312 -8.578125 8.972656 -8.796875 8.046875 -8.796875 C 7.546875 -8.796875 7.113281 -8.6875 6.75 -8.46875 C 6.394531 -8.25 6.140625 -7.984375 5.984375 -7.671875 C 5.835938 -7.359375 5.734375 -7.09375 5.671875 -6.875 C 5.609375 -6.65625 5.578125 -6.484375 5.578125 -6.359375 L 5.578125 0 Z M 1.40625 0 "/></g></g></g><g fill="#990f66" fill-opacity="1"><g transform="translate(30.94884, 19.706752)"><g><path d="M 2.234375 -1.484375 C 1.109375 -2.722656 0.546875 -4.234375 0.546875 -6.015625 C 0.546875 -7.804688 1.109375 -9.320312 2.234375 -10.5625 C 3.367188 -11.800781 4.804688 -12.421875 6.546875 -12.421875 C 8.140625 -12.421875 9.457031 -11.921875 10.5 -10.921875 L 10.5 -12.078125 L 14.65625 -12.078125 L 14.65625 0 L 10.546875 0 L 10.546875 -1.359375 L 10.5 -1.359375 C 9.457031 -0.210938 8.140625 0.359375 6.546875 0.359375 C 4.804688 0.359375 3.367188 -0.253906 2.234375 -1.484375 Z M 5.78125 -8.0625 C 5.238281 -7.53125 4.96875 -6.847656 4.96875 -6.015625 C 4.96875 -5.191406 5.222656 -4.515625 5.734375 -3.984375 C 6.253906 -3.460938 6.9375 -3.203125 7.78125 -3.203125 C 8.601562 -3.203125 9.273438 -3.46875 9.796875 -4 C 10.328125 -4.53125 10.59375 -5.207031 10.59375 -6.03125 C 10.59375 -6.851562 10.320312 -7.53125 9.78125 -8.0625 C 9.238281 -8.601562 8.570312 -8.875 7.78125 -8.875 C 6.988281 -8.875 6.320312 -8.601562 5.78125 -8.0625 Z M 5.78125 -8.0625 "/></g></g></g><g fill="#990f66" fill-opacity="1"><g transform="translate(47.084357, 19.706752)"><g><path d="M 4.09375 -5.03125 C 4.84375 -5.03125 5.476562 -4.765625 6 -4.234375 C 6.53125 -3.710938 6.796875 -3.078125 6.796875 -2.328125 C 6.796875 -1.585938 6.53125 -0.953125 6 -0.421875 C 5.476562 0.0976562 4.84375 0.359375 4.09375 0.359375 C 3.351562 0.359375 2.71875 0.0976562 2.1875 -0.421875 C 1.664062 -0.953125 1.40625 -1.585938 1.40625 -2.328125 C 1.40625 -3.078125 1.664062 -3.710938 2.1875 -4.234375 C 2.71875 -4.765625 3.351562 -5.03125 4.09375 -5.03125 Z M 4.09375 -5.03125 "/></g></g></g><g fill="#990f66" fill-opacity="1"><g transform="translate(55.363818, 19.706752)"><g/></g></g><g fill="#990f66" fill-opacity="1"><g transform="translate(61.85568, 19.706752)"><g><path d="M 11.265625 -19.40625 L 19.109375 0 L 14.359375 0 L 12.921875 -3.875 L 5.53125 -3.875 L 4.09375 0 L -0.65625 0 L 7.171875 -19.40625 Z M 11.40625 -7.765625 L 9.25 -13.40625 L 9.203125 -13.40625 L 7.03125 -7.765625 Z M 11.40625 -7.765625 "/></g></g></g><g fill="#990f66" fill-opacity="1"><g transform="translate(80.366839, 19.706752)"><g><path d="M 1.40625 0 L 1.40625 -20.234375 L 5.578125 -20.234375 L 5.578125 0 Z M 1.40625 0 "/></g></g></g><g fill="#990f66" fill-opacity="1"><g transform="translate(87.423202, 19.706752)"><g><path d="M 13.625 -5.453125 L 4.875 -5.453125 C 4.875 -4.609375 5.144531 -3.984375 5.6875 -3.578125 C 6.238281 -3.171875 6.835938 -2.96875 7.484375 -2.96875 C 8.160156 -2.96875 8.691406 -3.054688 9.078125 -3.234375 C 9.472656 -3.410156 9.921875 -3.769531 10.421875 -4.3125 L 13.4375 -2.796875 C 12.175781 -0.691406 10.085938 0.359375 7.171875 0.359375 C 5.359375 0.359375 3.800781 -0.265625 2.5 -1.515625 C 1.195312 -2.765625 0.546875 -4.265625 0.546875 -6.015625 C 0.546875 -7.773438 1.195312 -9.28125 2.5 -10.53125 C 3.800781 -11.789062 5.359375 -12.421875 7.171875 -12.421875 C 9.085938 -12.421875 10.644531 -11.867188 11.84375 -10.765625 C 13.039062 -9.660156 13.640625 -8.082031 13.640625 -6.03125 C 13.640625 -5.738281 13.632812 -5.546875 13.625 -5.453125 Z M 4.984375 -7.765625 L 9.578125 -7.765625 C 9.484375 -8.390625 9.234375 -8.867188 8.828125 -9.203125 C 8.429688 -9.546875 7.921875 -9.71875 7.296875 -9.71875 C 6.609375 -9.71875 6.054688 -9.535156 5.640625 -9.171875 C 5.234375 -8.816406 5.015625 -8.347656 4.984375 -7.765625 Z M 4.984375 -7.765625 "/></g></g></g><g fill="#990f66" fill-opacity="1"><g transform="translate(101.677032, 19.706752)"><g><path d="M 1.8125 -18.796875 C 2.300781 -19.285156 2.878906 -19.53125 3.546875 -19.53125 C 4.222656 -19.53125 4.804688 -19.285156 5.296875 -18.796875 C 5.785156 -18.316406 6.03125 -17.738281 6.03125 -17.0625 C 6.03125 -16.382812 5.785156 -15.800781 5.296875 -15.3125 C 4.804688 -14.832031 4.222656 -14.59375 3.546875 -14.59375 C 2.878906 -14.59375 2.300781 -14.832031 1.8125 -15.3125 C 1.320312 -15.800781 1.078125 -16.382812 1.078125 -17.0625 C 1.078125 -17.738281 1.320312 -18.316406 1.8125 -18.796875 Z M 1.40625 -12.078125 L 1.40625 1.0625 C 1.40625 2.15625 1.023438 2.703125 0.265625 2.703125 C 0.109375 2.703125 -0.0546875 2.675781 -0.234375 2.625 C -0.410156 2.570312 -0.550781 2.515625 -0.65625 2.453125 L -0.796875 2.359375 L -2.09375 5.71875 C -2.0625 5.726562 -1.957031 5.773438 -1.78125 5.859375 C -1.613281 5.941406 -1.484375 6 -1.390625 6.03125 C -1.304688 6.070312 -1.160156 6.125 -0.953125 6.1875 C -0.753906 6.25 -0.5625 6.296875 -0.375 6.328125 C -0.1875 6.359375 0.046875 6.390625 0.328125 6.421875 C 0.609375 6.453125 0.90625 6.46875 1.21875 6.46875 C 2.007812 6.46875 2.703125 6.328125 3.296875 6.046875 C 3.890625 5.773438 4.34375 5.410156 4.65625 4.953125 C 4.96875 4.492188 5.195312 4.007812 5.34375 3.5 C 5.5 2.988281 5.578125 2.441406 5.578125 1.859375 L 5.578125 -12.078125 Z M 1.40625 -12.078125 "/></g></g></g><g fill="#990f66" fill-opacity="1"><g transform="translate(108.733394, 19.706752)"><g><path d="M 2.234375 -1.484375 C 1.109375 -2.722656 0.546875 -4.234375 0.546875 -6.015625 C 0.546875 -7.804688 1.109375 -9.320312 2.234375 -10.5625 C 3.367188 -11.800781 4.804688 -12.421875 6.546875 -12.421875 C 8.140625 -12.421875 9.457031 -11.921875 10.5 -10.921875 L 10.5 -12.078125 L 14.65625 -12.078125 L 14.65625 0 L 10.546875 0 L 10.546875 -1.359375 L 10.5 -1.359375 C 9.457031 -0.210938 8.140625 0.359375 6.546875 0.359375 C 4.804688 0.359375 3.367188 -0.253906 2.234375 -1.484375 Z M 5.78125 -8.0625 C 5.238281 -7.53125 4.96875 -6.847656 4.96875 -6.015625 C 4.96875 -5.191406 5.222656 -4.515625 5.734375 -3.984375 C 6.253906 -3.460938 6.9375 -3.203125 7.78125 -3.203125 C 8.601562 -3.203125 9.273438 -3.46875 9.796875 -4 C 10.328125 -4.53125 10.59375 -5.207031 10.59375 -6.03125 C 10.59375 -6.851562 10.320312 -7.53125 9.78125 -8.0625 C 9.238281 -8.601562 8.570312 -8.875 7.78125 -8.875 C 6.988281 -8.875 6.320312 -8.601562 5.78125 -8.0625 Z M 5.78125 -8.0625 "/></g></g></g><g fill="#990f66" fill-opacity="1"><g transform="translate(124.868915, 19.706752)"><g><path d="M 1.40625 0 L 1.40625 -12.078125 L 5.578125 -12.078125 L 5.578125 -10.796875 L 5.625 -10.796875 C 6.707031 -11.878906 7.859375 -12.421875 9.078125 -12.421875 C 9.679688 -12.421875 10.273438 -12.34375 10.859375 -12.1875 C 11.441406 -12.03125 12.003906 -11.785156 12.546875 -11.453125 C 13.085938 -11.128906 13.523438 -10.664062 13.859375 -10.0625 C 14.203125 -9.457031 14.375 -8.753906 14.375 -7.953125 L 14.375 0 L 10.21875 0 L 10.21875 -6.828125 C 10.21875 -7.453125 10.015625 -8 9.609375 -8.46875 C 9.210938 -8.9375 8.691406 -9.171875 8.046875 -9.171875 C 7.421875 -9.171875 6.851562 -8.925781 6.34375 -8.4375 C 5.832031 -7.957031 5.578125 -7.421875 5.578125 -6.828125 L 5.578125 0 Z M 1.40625 0 "/></g></g></g><g fill="#990f66" fill-opacity="1"><g transform="translate(140.486979, 19.706752)"><g><path d="M 2.234375 -1.484375 C 1.109375 -2.722656 0.546875 -4.234375 0.546875 -6.015625 C 0.546875 -7.804688 1.109375 -9.320312 2.234375 -10.5625 C 3.367188 -11.800781 4.804688 -12.421875 6.546875 -12.421875 C 8.140625 -12.421875 9.457031 -11.921875 10.5 -10.921875 L 10.5 -20.234375 L 14.65625 -20.234375 L 14.65625 0 L 10.546875 0 L 10.546875 -1.359375 L 10.5 -1.359375 C 9.457031 -0.210938 8.140625 0.359375 6.546875 0.359375 C 4.804688 0.359375 3.367188 -0.253906 2.234375 -1.484375 Z M 5.78125 -8.0625 C 5.238281 -7.53125 4.96875 -6.847656 4.96875 -6.015625 C 4.96875 -5.191406 5.222656 -4.515625 5.734375 -3.984375 C 6.253906 -3.460938 6.9375 -3.203125 7.78125 -3.203125 C 8.601562 -3.203125 9.273438 -3.46875 9.796875 -4 C 10.328125 -4.53125 10.59375 -5.207031 10.59375 -6.03125 C 10.59375 -6.851562 10.320312 -7.53125 9.78125 -8.0625 C 9.238281 -8.601562 8.570312 -8.875 7.78125 -8.875 C 6.988281 -8.875 6.320312 -8.601562 5.78125 -8.0625 Z M 5.78125 -8.0625 "/></g></g></g><g fill="#990f66" fill-opacity="1"><g transform="translate(156.622499, 19.706752)"><g><path d="M 1.40625 0 L 1.40625 -12.078125 L 5.578125 -12.078125 L 5.578125 -10.328125 L 5.625 -10.328125 C 5.65625 -10.390625 5.703125 -10.46875 5.765625 -10.5625 C 5.835938 -10.65625 5.992188 -10.816406 6.234375 -11.046875 C 6.472656 -11.285156 6.722656 -11.5 6.984375 -11.6875 C 7.253906 -11.882812 7.597656 -12.054688 8.015625 -12.203125 C 8.441406 -12.347656 8.875 -12.421875 9.3125 -12.421875 C 9.769531 -12.421875 10.21875 -12.359375 10.65625 -12.234375 C 11.09375 -12.109375 11.414062 -11.984375 11.625 -11.859375 L 11.953125 -11.671875 L 10.21875 -8.140625 C 9.695312 -8.578125 8.972656 -8.796875 8.046875 -8.796875 C 7.546875 -8.796875 7.113281 -8.6875 6.75 -8.46875 C 6.394531 -8.25 6.140625 -7.984375 5.984375 -7.671875 C 5.835938 -7.359375 5.734375 -7.09375 5.671875 -6.875 C 5.609375 -6.65625 5.578125 -6.484375 5.578125 -6.359375 L 5.578125 0 Z M 1.40625 0 "/></g></g></g><g fill="#990f66" fill-opacity="1"><g transform="translate(168.406616, 19.706752)"><g><path d="M 2.234375 -1.484375 C 1.109375 -2.722656 0.546875 -4.234375 0.546875 -6.015625 C 0.546875 -7.804688 1.109375 -9.320312 2.234375 -10.5625 C 3.367188 -11.800781 4.804688 -12.421875 6.546875 -12.421875 C 8.140625 -12.421875 9.457031 -11.921875 10.5 -10.921875 L 10.5 -12.078125 L 14.65625 -12.078125 L 14.65625 0 L 10.546875 0 L 10.546875 -1.359375 L 10.5 -1.359375 C 9.457031 -0.210938 8.140625 0.359375 6.546875 0.359375 C 4.804688 0.359375 3.367188 -0.253906 2.234375 -1.484375 Z M 5.78125 -8.0625 C 5.238281 -7.53125 4.96875 -6.847656 4.96875 -6.015625 C 4.96875 -5.191406 5.222656 -4.515625 5.734375 -3.984375 C 6.253906 -3.460938 6.9375 -3.203125 7.78125 -3.203125 C 8.601562 -3.203125 9.273438 -3.46875 9.796875 -4 C 10.328125 -4.53125 10.59375 -5.207031 10.59375 -6.03125 C 10.59375 -6.851562 10.320312 -7.53125 9.78125 -8.0625 C 9.238281 -8.601562 8.570312 -8.875 7.78125 -8.875 C 6.988281 -8.875 6.320312 -8.601562 5.78125 -8.0625 Z M 5.78125 -8.0625 "/></g></g></g><g fill="#990f66" fill-opacity="1"><g transform="translate(184.542137, 19.706752)"><g/></g></g><g fill="#990f66" fill-opacity="1"><g transform="translate(191.033999, 19.706752)"><g><path d="M 1.40625 -19.40625 L 8.5 -19.40625 C 10.46875 -19.40625 12.0625 -18.894531 13.28125 -17.875 C 14.507812 -16.863281 15.125 -15.382812 15.125 -13.4375 C 15.125 -11.488281 14.503906 -9.960938 13.265625 -8.859375 C 12.023438 -7.753906 10.4375 -7.203125 8.5 -7.203125 L 5.828125 -7.203125 L 5.828125 0 L 1.40625 0 Z M 5.828125 -10.734375 L 7.078125 -10.734375 C 8.066406 -10.734375 8.878906 -10.929688 9.515625 -11.328125 C 10.148438 -11.734375 10.46875 -12.390625 10.46875 -13.296875 C 10.46875 -14.222656 10.148438 -14.882812 9.515625 -15.28125 C 8.878906 -15.6875 8.066406 -15.890625 7.078125 -15.890625 L 5.828125 -15.890625 Z M 5.828125 -10.734375 "/></g></g></g><g fill="#990f66" fill-opacity="1"><g transform="translate(206.76966, 19.706752)"><g><path d="M 5.71875 -15.625 L 10.5 -19.765625 L 12.640625 -17.0625 L 7.03125 -13.8125 Z M 13.625 -5.453125 L 4.875 -5.453125 C 4.875 -4.609375 5.144531 -3.984375 5.6875 -3.578125 C 6.238281 -3.171875 6.835938 -2.96875 7.484375 -2.96875 C 8.160156 -2.96875 8.691406 -3.054688 9.078125 -3.234375 C 9.472656 -3.410156 9.921875 -3.769531 10.421875 -4.3125 L 13.4375 -2.796875 C 12.175781 -0.691406 10.085938 0.359375 7.171875 0.359375 C 5.359375 0.359375 3.800781 -0.265625 2.5 -1.515625 C 1.195312 -2.765625 0.546875 -4.265625 0.546875 -6.015625 C 0.546875 -7.773438 1.195312 -9.28125 2.5 -10.53125 C 3.800781 -11.789062 5.359375 -12.421875 7.171875 -12.421875 C 9.085938 -12.421875 10.644531 -11.867188 11.84375 -10.765625 C 13.039062 -9.660156 13.640625 -8.082031 13.640625 -6.03125 C 13.640625 -5.738281 13.632812 -5.546875 13.625 -5.453125 Z M 4.984375 -7.765625 L 9.578125 -7.765625 C 9.484375 -8.390625 9.234375 -8.867188 8.828125 -9.203125 C 8.429688 -9.546875 7.921875 -9.71875 7.296875 -9.71875 C 6.609375 -9.71875 6.054688 -9.535156 5.640625 -9.171875 C 5.234375 -8.816406 5.015625 -8.347656 4.984375 -7.765625 Z M 4.984375 -7.765625 "/></g></g></g><g fill="#990f66" fill-opacity="1"><g transform="translate(221.02349, 19.706752)"><g><path d="M 1.40625 0 L 1.40625 -12.078125 L 5.578125 -12.078125 L 5.578125 -10.328125 L 5.625 -10.328125 C 5.65625 -10.390625 5.703125 -10.46875 5.765625 -10.5625 C 5.835938 -10.65625 5.992188 -10.816406 6.234375 -11.046875 C 6.472656 -11.285156 6.722656 -11.5 6.984375 -11.6875 C 7.253906 -11.882812 7.597656 -12.054688 8.015625 -12.203125 C 8.441406 -12.347656 8.875 -12.421875 9.3125 -12.421875 C 9.769531 -12.421875 10.21875 -12.359375 10.65625 -12.234375 C 11.09375 -12.109375 11.414062 -11.984375 11.625 -11.859375 L 11.953125 -11.671875 L 10.21875 -8.140625 C 9.695312 -8.578125 8.972656 -8.796875 8.046875 -8.796875 C 7.546875 -8.796875 7.113281 -8.6875 6.75 -8.46875 C 6.394531 -8.25 6.140625 -7.984375 5.984375 -7.671875 C 5.835938 -7.359375 5.734375 -7.09375 5.671875 -6.875 C 5.609375 -6.65625 5.578125 -6.484375 5.578125 -6.359375 L 5.578125 0 Z M 1.40625 0 "/></g></g></g><g fill="#990f66" fill-opacity="1"><g transform="translate(232.807607, 19.706752)"><g><path d="M 13.625 -5.453125 L 4.875 -5.453125 C 4.875 -4.609375 5.144531 -3.984375 5.6875 -3.578125 C 6.238281 -3.171875 6.835938 -2.96875 7.484375 -2.96875 C 8.160156 -2.96875 8.691406 -3.054688 9.078125 -3.234375 C 9.472656 -3.410156 9.921875 -3.769531 10.421875 -4.3125 L 13.4375 -2.796875 C 12.175781 -0.691406 10.085938 0.359375 7.171875 0.359375 C 5.359375 0.359375 3.800781 -0.265625 2.5 -1.515625 C 1.195312 -2.765625 0.546875 -4.265625 0.546875 -6.015625 C 0.546875 -7.773438 1.195312 -9.28125 2.5 -10.53125 C 3.800781 -11.789062 5.359375 -12.421875 7.171875 -12.421875 C 9.085938 -12.421875 10.644531 -11.867188 11.84375 -10.765625 C 13.039062 -9.660156 13.640625 -8.082031 13.640625 -6.03125 C 13.640625 -5.738281 13.632812 -5.546875 13.625 -5.453125 Z M 4.984375 -7.765625 L 9.578125 -7.765625 C 9.484375 -8.390625 9.234375 -8.867188 8.828125 -9.203125 C 8.429688 -9.546875 7.921875 -9.71875 7.296875 -9.71875 C 6.609375 -9.71875 6.054688 -9.535156 5.640625 -9.171875 C 5.234375 -8.816406 5.015625 -8.347656 4.984375 -7.765625 Z M 4.984375 -7.765625 "/></g></g></g><g fill="#990f66" fill-opacity="1"><g transform="translate(247.061437, 19.706752)"><g><path d="M 13.078125 -12.078125 L 7.109375 -3.171875 L 12.609375 -3.171875 L 12.609375 0 L 0.125 0 L 6.09375 -8.890625 L 1.109375 -8.890625 L 1.109375 -12.078125 Z M 13.078125 -12.078125 "/></g></g></g><g fill="#187b69" fill-opacity="1"><g transform="translate(1.944971, 39.060547)"><g><path d="M 2.078125 -7.703125 L 2.078125 -4.8125 L 5.21875 -4.8125 L 5.21875 -3.890625 L 2.078125 -3.890625 L 2.078125 -0.921875 L 5.59375 -0.921875 L 5.59375 0 L 0.953125 0 L 0.953125 -8.625 L 5.59375 -8.625 L 5.59375 -7.703125 Z M 2.078125 -7.703125 "/></g></g></g><g fill="#187b69" fill-opacity="1"><g transform="translate(8.282278, 39.060547)"><g><path d="M 3.34375 0.109375 C 2.832031 0.109375 2.367188 0.0195312 1.953125 -0.15625 C 1.535156 -0.332031 1.207031 -0.578125 0.96875 -0.890625 C 0.738281 -1.210938 0.609375 -1.578125 0.578125 -1.984375 L 1.75 -1.984375 C 1.78125 -1.648438 1.9375 -1.375 2.21875 -1.15625 C 2.5 -0.945312 2.875 -0.84375 3.34375 -0.84375 C 3.769531 -0.84375 4.101562 -0.9375 4.34375 -1.125 C 4.59375 -1.3125 4.71875 -1.550781 4.71875 -1.84375 C 4.71875 -2.132812 4.585938 -2.351562 4.328125 -2.5 C 4.066406 -2.644531 3.660156 -2.785156 3.109375 -2.921875 C 2.597656 -3.054688 2.179688 -3.191406 1.859375 -3.328125 C 1.546875 -3.460938 1.273438 -3.664062 1.046875 -3.9375 C 0.828125 -4.207031 0.71875 -4.5625 0.71875 -5 C 0.71875 -5.34375 0.816406 -5.65625 1.015625 -5.9375 C 1.222656 -6.226562 1.515625 -6.457031 1.890625 -6.625 C 2.273438 -6.800781 2.710938 -6.890625 3.203125 -6.890625 C 3.953125 -6.890625 4.554688 -6.695312 5.015625 -6.3125 C 5.472656 -5.9375 5.722656 -5.421875 5.765625 -4.765625 L 4.640625 -4.765625 C 4.609375 -5.117188 4.460938 -5.398438 4.203125 -5.609375 C 3.941406 -5.828125 3.59375 -5.9375 3.15625 -5.9375 C 2.757812 -5.9375 2.441406 -5.847656 2.203125 -5.671875 C 1.960938 -5.492188 1.84375 -5.269531 1.84375 -5 C 1.84375 -4.769531 1.914062 -4.582031 2.0625 -4.4375 C 2.207031 -4.300781 2.382812 -4.1875 2.59375 -4.09375 C 2.8125 -4.007812 3.117188 -3.914062 3.515625 -3.8125 C 3.992188 -3.675781 4.382812 -3.539062 4.6875 -3.40625 C 5 -3.28125 5.265625 -3.085938 5.484375 -2.828125 C 5.703125 -2.578125 5.816406 -2.25 5.828125 -1.84375 C 5.828125 -1.46875 5.722656 -1.128906 5.515625 -0.828125 C 5.304688 -0.535156 5.015625 -0.304688 4.640625 -0.140625 C 4.265625 0.0234375 3.832031 0.109375 3.34375 0.109375 Z M 3.34375 0.109375 "/></g></g></g><g clip-path="url(#f5cd446d7a)"><g fill="#187b69" fill-opacity="1"><g transform="translate(14.730758, 39.060547)"><g><path d="M 2.078125 -5.53125 C 2.296875 -5.914062 2.625 -6.238281 3.0625 -6.5 C 3.507812 -6.757812 4.023438 -6.890625 4.609375 -6.890625 C 5.210938 -6.890625 5.757812 -6.742188 6.25 -6.453125 C 6.738281 -6.160156 7.125 -5.753906 7.40625 -5.234375 C 7.6875 -4.710938 7.828125 -4.101562 7.828125 -3.40625 C 7.828125 -2.726562 7.6875 -2.117188 7.40625 -1.578125 C 7.125 -1.046875 6.738281 -0.628906 6.25 -0.328125 C 5.757812 -0.0351562 5.210938 0.109375 4.609375 0.109375 C 4.035156 0.109375 3.523438 -0.0195312 3.078125 -0.28125 C 2.640625 -0.539062 2.304688 -0.863281 2.078125 -1.25 L 2.078125 3.21875 L 0.953125 3.21875 L 0.953125 -6.765625 L 2.078125 -6.765625 Z M 6.671875 -3.40625 C 6.671875 -3.914062 6.566406 -4.359375 6.359375 -4.734375 C 6.160156 -5.117188 5.882812 -5.410156 5.53125 -5.609375 C 5.175781 -5.804688 4.789062 -5.90625 4.375 -5.90625 C 3.957031 -5.90625 3.570312 -5.800781 3.21875 -5.59375 C 2.875 -5.394531 2.597656 -5.101562 2.390625 -4.71875 C 2.179688 -4.34375 2.078125 -3.90625 2.078125 -3.40625 C 2.078125 -2.882812 2.179688 -2.429688 2.390625 -2.046875 C 2.597656 -1.671875 2.875 -1.378906 3.21875 -1.171875 C 3.570312 -0.972656 3.957031 -0.875 4.375 -0.875 C 4.789062 -0.875 5.175781 -0.972656 5.53125 -1.171875 C 5.882812 -1.378906 6.160156 -1.671875 6.359375 -2.046875 C 6.566406 -2.429688 6.671875 -2.882812 6.671875 -3.40625 Z M 6.671875 -3.40625 "/></g></g></g></g><g fill="#187b69" fill-opacity="1"><g transform="translate(23.081664, 39.060547)"><g><path d="M 7.125 -3.640625 C 7.125 -3.429688 7.113281 -3.207031 7.09375 -2.96875 L 1.6875 -2.96875 C 1.726562 -2.300781 1.953125 -1.78125 2.359375 -1.40625 C 2.773438 -1.03125 3.28125 -0.84375 3.875 -0.84375 C 4.363281 -0.84375 4.769531 -0.953125 5.09375 -1.171875 C 5.425781 -1.398438 5.65625 -1.707031 5.78125 -2.09375 L 7 -2.09375 C 6.8125 -1.4375 6.445312 -0.90625 5.90625 -0.5 C 5.363281 -0.09375 4.6875 0.109375 3.875 0.109375 C 3.238281 0.109375 2.664062 -0.03125 2.15625 -0.3125 C 1.644531 -0.601562 1.242188 -1.015625 0.953125 -1.546875 C 0.671875 -2.078125 0.53125 -2.695312 0.53125 -3.40625 C 0.53125 -4.101562 0.671875 -4.710938 0.953125 -5.234375 C 1.234375 -5.765625 1.625 -6.171875 2.125 -6.453125 C 2.632812 -6.742188 3.21875 -6.890625 3.875 -6.890625 C 4.519531 -6.890625 5.085938 -6.75 5.578125 -6.46875 C 6.078125 -6.1875 6.457031 -5.800781 6.71875 -5.3125 C 6.988281 -4.820312 7.125 -4.265625 7.125 -3.640625 Z M 5.96875 -3.875 C 5.96875 -4.3125 5.875 -4.679688 5.6875 -4.984375 C 5.5 -5.296875 5.238281 -5.53125 4.90625 -5.6875 C 4.582031 -5.851562 4.222656 -5.9375 3.828125 -5.9375 C 3.265625 -5.9375 2.78125 -5.753906 2.375 -5.390625 C 1.976562 -5.023438 1.75 -4.519531 1.6875 -3.875 Z M 5.96875 -3.875 "/></g></g></g><g fill="#187b69" fill-opacity="1"><g transform="translate(30.740779, 39.060547)"><g><path d="M 0.53125 -3.40625 C 0.53125 -4.101562 0.671875 -4.710938 0.953125 -5.234375 C 1.234375 -5.753906 1.625 -6.160156 2.125 -6.453125 C 2.625 -6.742188 3.191406 -6.890625 3.828125 -6.890625 C 4.660156 -6.890625 5.347656 -6.6875 5.890625 -6.28125 C 6.429688 -5.875 6.785156 -5.3125 6.953125 -4.59375 L 5.75 -4.59375 C 5.632812 -5.007812 5.410156 -5.335938 5.078125 -5.578125 C 4.742188 -5.816406 4.328125 -5.9375 3.828125 -5.9375 C 3.191406 -5.9375 2.675781 -5.710938 2.28125 -5.265625 C 1.882812 -4.828125 1.6875 -4.207031 1.6875 -3.40625 C 1.6875 -2.582031 1.882812 -1.945312 2.28125 -1.5 C 2.675781 -1.0625 3.191406 -0.84375 3.828125 -0.84375 C 4.328125 -0.84375 4.738281 -0.957031 5.0625 -1.1875 C 5.394531 -1.414062 5.625 -1.742188 5.75 -2.171875 L 6.953125 -2.171875 C 6.773438 -1.484375 6.414062 -0.929688 5.875 -0.515625 C 5.332031 -0.0976562 4.648438 0.109375 3.828125 0.109375 C 3.191406 0.109375 2.625 -0.03125 2.125 -0.3125 C 1.625 -0.601562 1.234375 -1.007812 0.953125 -1.53125 C 0.671875 -2.0625 0.53125 -2.6875 0.53125 -3.40625 Z M 0.53125 -3.40625 "/></g></g></g><g fill="#187b69" fill-opacity="1"><g transform="translate(38.239306, 39.060547)"><g><path d="M 1.53125 -7.875 C 1.320312 -7.875 1.140625 -7.945312 0.984375 -8.09375 C 0.835938 -8.238281 0.765625 -8.421875 0.765625 -8.640625 C 0.765625 -8.847656 0.835938 -9.023438 0.984375 -9.171875 C 1.140625 -9.328125 1.320312 -9.40625 1.53125 -9.40625 C 1.738281 -9.40625 1.914062 -9.328125 2.0625 -9.171875 C 2.207031 -9.023438 2.28125 -8.847656 2.28125 -8.640625 C 2.28125 -8.421875 2.207031 -8.238281 2.0625 -8.09375 C 1.914062 -7.945312 1.738281 -7.875 1.53125 -7.875 Z M 2.078125 -6.765625 L 2.078125 0 L 0.953125 0 L 0.953125 -6.765625 Z M 2.078125 -6.765625 "/></g></g></g><g fill="#187b69" fill-opacity="1"><g transform="translate(41.278245, 39.060547)"><g><path d="M 0.53125 -3.40625 C 0.53125 -4.101562 0.671875 -4.710938 0.953125 -5.234375 C 1.234375 -5.753906 1.617188 -6.160156 2.109375 -6.453125 C 2.597656 -6.742188 3.144531 -6.890625 3.75 -6.890625 C 4.34375 -6.890625 4.851562 -6.757812 5.28125 -6.5 C 5.71875 -6.25 6.046875 -5.925781 6.265625 -5.53125 L 6.265625 -6.765625 L 7.40625 -6.765625 L 7.40625 0 L 6.265625 0 L 6.265625 -1.265625 C 6.046875 -0.867188 5.710938 -0.539062 5.265625 -0.28125 C 4.828125 -0.0195312 4.316406 0.109375 3.734375 0.109375 C 3.128906 0.109375 2.582031 -0.0351562 2.09375 -0.328125 C 1.613281 -0.628906 1.234375 -1.046875 0.953125 -1.578125 C 0.671875 -2.117188 0.53125 -2.726562 0.53125 -3.40625 Z M 6.265625 -3.40625 C 6.265625 -3.914062 6.160156 -4.359375 5.953125 -4.734375 C 5.742188 -5.109375 5.460938 -5.394531 5.109375 -5.59375 C 4.765625 -5.800781 4.382812 -5.90625 3.96875 -5.90625 C 3.550781 -5.90625 3.164062 -5.804688 2.8125 -5.609375 C 2.46875 -5.410156 2.191406 -5.117188 1.984375 -4.734375 C 1.785156 -4.359375 1.6875 -3.914062 1.6875 -3.40625 C 1.6875 -2.882812 1.785156 -2.429688 1.984375 -2.046875 C 2.191406 -1.671875 2.46875 -1.378906 2.8125 -1.171875 C 3.164062 -0.972656 3.550781 -0.875 3.96875 -0.875 C 4.382812 -0.875 4.765625 -0.972656 5.109375 -1.171875 C 5.460938 -1.378906 5.742188 -1.671875 5.953125 -2.046875 C 6.160156 -2.429688 6.265625 -2.882812 6.265625 -3.40625 Z M 6.265625 -3.40625 "/></g></g></g><g fill="#187b69" fill-opacity="1"><g transform="translate(49.629151, 39.060547)"><g><path d="M 2.078125 -9.140625 L 2.078125 0 L 0.953125 0 L 0.953125 -9.140625 Z M 2.078125 -9.140625 "/></g></g></g><g fill="#187b69" fill-opacity="1"><g transform="translate(52.66809, 39.060547)"><g><path d="M 1.53125 -7.875 C 1.320312 -7.875 1.140625 -7.945312 0.984375 -8.09375 C 0.835938 -8.238281 0.765625 -8.421875 0.765625 -8.640625 C 0.765625 -8.847656 0.835938 -9.023438 0.984375 -9.171875 C 1.140625 -9.328125 1.320312 -9.40625 1.53125 -9.40625 C 1.738281 -9.40625 1.914062 -9.328125 2.0625 -9.171875 C 2.207031 -9.023438 2.28125 -8.847656 2.28125 -8.640625 C 2.28125 -8.421875 2.207031 -8.238281 2.0625 -8.09375 C 1.914062 -7.945312 1.738281 -7.875 1.53125 -7.875 Z M 2.078125 -6.765625 L 2.078125 0 L 0.953125 0 L 0.953125 -6.765625 Z M 2.078125 -6.765625 "/></g></g></g><g fill="#187b69" fill-opacity="1"><g transform="translate(55.707029, 39.060547)"><g><path d="M 3.34375 0.109375 C 2.832031 0.109375 2.367188 0.0195312 1.953125 -0.15625 C 1.535156 -0.332031 1.207031 -0.578125 0.96875 -0.890625 C 0.738281 -1.210938 0.609375 -1.578125 0.578125 -1.984375 L 1.75 -1.984375 C 1.78125 -1.648438 1.9375 -1.375 2.21875 -1.15625 C 2.5 -0.945312 2.875 -0.84375 3.34375 -0.84375 C 3.769531 -0.84375 4.101562 -0.9375 4.34375 -1.125 C 4.59375 -1.3125 4.71875 -1.550781 4.71875 -1.84375 C 4.71875 -2.132812 4.585938 -2.351562 4.328125 -2.5 C 4.066406 -2.644531 3.660156 -2.785156 3.109375 -2.921875 C 2.597656 -3.054688 2.179688 -3.191406 1.859375 -3.328125 C 1.546875 -3.460938 1.273438 -3.664062 1.046875 -3.9375 C 0.828125 -4.207031 0.71875 -4.5625 0.71875 -5 C 0.71875 -5.34375 0.816406 -5.65625 1.015625 -5.9375 C 1.222656 -6.226562 1.515625 -6.457031 1.890625 -6.625 C 2.273438 -6.800781 2.710938 -6.890625 3.203125 -6.890625 C 3.953125 -6.890625 4.554688 -6.695312 5.015625 -6.3125 C 5.472656 -5.9375 5.722656 -5.421875 5.765625 -4.765625 L 4.640625 -4.765625 C 4.609375 -5.117188 4.460938 -5.398438 4.203125 -5.609375 C 3.941406 -5.828125 3.59375 -5.9375 3.15625 -5.9375 C 2.757812 -5.9375 2.441406 -5.847656 2.203125 -5.671875 C 1.960938 -5.492188 1.84375 -5.269531 1.84375 -5 C 1.84375 -4.769531 1.914062 -4.582031 2.0625 -4.4375 C 2.207031 -4.300781 2.382812 -4.1875 2.59375 -4.09375 C 2.8125 -4.007812 3.117188 -3.914062 3.515625 -3.8125 C 3.992188 -3.675781 4.382812 -3.539062 4.6875 -3.40625 C 5 -3.28125 5.265625 -3.085938 5.484375 -2.828125 C 5.703125 -2.578125 5.816406 -2.25 5.828125 -1.84375 C 5.828125 -1.46875 5.722656 -1.128906 5.515625 -0.828125 C 5.304688 -0.535156 5.015625 -0.304688 4.640625 -0.140625 C 4.265625 0.0234375 3.832031 0.109375 3.34375 0.109375 Z M 3.34375 0.109375 "/></g></g></g><g fill="#187b69" fill-opacity="1"><g transform="translate(62.15551, 39.060547)"><g><path d="M 2.328125 -5.84375 L 2.328125 -1.859375 C 2.328125 -1.523438 2.394531 -1.289062 2.53125 -1.15625 C 2.675781 -1.019531 2.921875 -0.953125 3.265625 -0.953125 L 4.09375 -0.953125 L 4.09375 0 L 3.078125 0 C 2.453125 0 1.984375 -0.140625 1.671875 -0.421875 C 1.359375 -0.710938 1.203125 -1.191406 1.203125 -1.859375 L 1.203125 -5.84375 L 0.328125 -5.84375 L 0.328125 -6.765625 L 1.203125 -6.765625 L 1.203125 -8.484375 L 2.328125 -8.484375 L 2.328125 -6.765625 L 4.09375 -6.765625 L 4.09375 -5.84375 Z M 2.328125 -5.84375 "/></g></g></g><g fill="#187b69" fill-opacity="1"><g transform="translate(66.652151, 39.060547)"><g><path d="M 0.53125 -3.40625 C 0.53125 -4.101562 0.671875 -4.710938 0.953125 -5.234375 C 1.234375 -5.753906 1.617188 -6.160156 2.109375 -6.453125 C 2.597656 -6.742188 3.144531 -6.890625 3.75 -6.890625 C 4.34375 -6.890625 4.851562 -6.757812 5.28125 -6.5 C 5.71875 -6.25 6.046875 -5.925781 6.265625 -5.53125 L 6.265625 -6.765625 L 7.40625 -6.765625 L 7.40625 0 L 6.265625 0 L 6.265625 -1.265625 C 6.046875 -0.867188 5.710938 -0.539062 5.265625 -0.28125 C 4.828125 -0.0195312 4.316406 0.109375 3.734375 0.109375 C 3.128906 0.109375 2.582031 -0.0351562 2.09375 -0.328125 C 1.613281 -0.628906 1.234375 -1.046875 0.953125 -1.578125 C 0.671875 -2.117188 0.53125 -2.726562 0.53125 -3.40625 Z M 6.265625 -3.40625 C 6.265625 -3.914062 6.160156 -4.359375 5.953125 -4.734375 C 5.742188 -5.109375 5.460938 -5.394531 5.109375 -5.59375 C 4.765625 -5.800781 4.382812 -5.90625 3.96875 -5.90625 C 3.550781 -5.90625 3.164062 -5.804688 2.8125 -5.609375 C 2.46875 -5.410156 2.191406 -5.117188 1.984375 -4.734375 C 1.785156 -4.359375 1.6875 -3.914062 1.6875 -3.40625 C 1.6875 -2.882812 1.785156 -2.429688 1.984375 -2.046875 C 2.191406 -1.671875 2.46875 -1.378906 2.8125 -1.171875 C 3.164062 -0.972656 3.550781 -0.875 3.96875 -0.875 C 4.382812 -0.875 4.765625 -0.972656 5.109375 -1.171875 C 5.460938 -1.378906 5.742188 -1.671875 5.953125 -2.046875 C 6.160156 -2.429688 6.265625 -2.882812 6.265625 -3.40625 Z M 6.265625 -3.40625 "/></g></g></g><g fill="#187b69" fill-opacity="1"><g transform="translate(75.003057, 39.060547)"><g/></g></g><g fill="#187b69" fill-opacity="1"><g transform="translate(78.301424, 39.060547)"><g><path d="M 7.125 -3.640625 C 7.125 -3.429688 7.113281 -3.207031 7.09375 -2.96875 L 1.6875 -2.96875 C 1.726562 -2.300781 1.953125 -1.78125 2.359375 -1.40625 C 2.773438 -1.03125 3.28125 -0.84375 3.875 -0.84375 C 4.363281 -0.84375 4.769531 -0.953125 5.09375 -1.171875 C 5.425781 -1.398438 5.65625 -1.707031 5.78125 -2.09375 L 7 -2.09375 C 6.8125 -1.4375 6.445312 -0.90625 5.90625 -0.5 C 5.363281 -0.09375 4.6875 0.109375 3.875 0.109375 C 3.238281 0.109375 2.664062 -0.03125 2.15625 -0.3125 C 1.644531 -0.601562 1.242188 -1.015625 0.953125 -1.546875 C 0.671875 -2.078125 0.53125 -2.695312 0.53125 -3.40625 C 0.53125 -4.101562 0.671875 -4.710938 0.953125 -5.234375 C 1.234375 -5.765625 1.625 -6.171875 2.125 -6.453125 C 2.632812 -6.742188 3.21875 -6.890625 3.875 -6.890625 C 4.519531 -6.890625 5.085938 -6.75 5.578125 -6.46875 C 6.078125 -6.1875 6.457031 -5.800781 6.71875 -5.3125 C 6.988281 -4.820312 7.125 -4.265625 7.125 -3.640625 Z M 5.96875 -3.875 C 5.96875 -4.3125 5.875 -4.679688 5.6875 -4.984375 C 5.5 -5.296875 5.238281 -5.53125 4.90625 -5.6875 C 4.582031 -5.851562 4.222656 -5.9375 3.828125 -5.9375 C 3.265625 -5.9375 2.78125 -5.753906 2.375 -5.390625 C 1.976562 -5.023438 1.75 -4.519531 1.6875 -3.875 Z M 5.96875 -3.875 "/></g></g></g><g fill="#187b69" fill-opacity="1"><g transform="translate(85.960539, 39.060547)"><g><path d="M 4.25 -6.890625 C 5.070312 -6.890625 5.738281 -6.640625 6.25 -6.140625 C 6.757812 -5.648438 7.015625 -4.929688 7.015625 -3.984375 L 7.015625 0 L 5.90625 0 L 5.90625 -3.828125 C 5.90625 -4.503906 5.734375 -5.019531 5.390625 -5.375 C 5.054688 -5.738281 4.597656 -5.921875 4.015625 -5.921875 C 3.421875 -5.921875 2.945312 -5.734375 2.59375 -5.359375 C 2.25 -4.992188 2.078125 -4.457031 2.078125 -3.75 L 2.078125 0 L 0.953125 0 L 0.953125 -6.765625 L 2.078125 -6.765625 L 2.078125 -5.8125 C 2.296875 -6.15625 2.597656 -6.421875 2.984375 -6.609375 C 3.367188 -6.796875 3.789062 -6.890625 4.25 -6.890625 Z M 4.25 -6.890625 "/></g></g></g><g fill="#187b69" fill-opacity="1"><g transform="translate(93.866722, 39.060547)"><g/></g></g><g fill="#187b69" fill-opacity="1"><g transform="translate(97.16509, 39.060547)"><g><path d="M 0.53125 -3.40625 C 0.53125 -4.101562 0.671875 -4.710938 0.953125 -5.234375 C 1.234375 -5.753906 1.617188 -6.160156 2.109375 -6.453125 C 2.597656 -6.742188 3.144531 -6.890625 3.75 -6.890625 C 4.28125 -6.890625 4.769531 -6.765625 5.21875 -6.515625 C 5.675781 -6.273438 6.023438 -5.957031 6.265625 -5.5625 L 6.265625 -9.140625 L 7.40625 -9.140625 L 7.40625 0 L 6.265625 0 L 6.265625 -1.265625 C 6.046875 -0.867188 5.71875 -0.539062 5.28125 -0.28125 C 4.84375 -0.0195312 4.332031 0.109375 3.75 0.109375 C 3.144531 0.109375 2.597656 -0.0351562 2.109375 -0.328125 C 1.617188 -0.628906 1.234375 -1.046875 0.953125 -1.578125 C 0.671875 -2.117188 0.53125 -2.726562 0.53125 -3.40625 Z M 6.265625 -3.40625 C 6.265625 -3.914062 6.160156 -4.359375 5.953125 -4.734375 C 5.742188 -5.109375 5.460938 -5.394531 5.109375 -5.59375 C 4.765625 -5.800781 4.382812 -5.90625 3.96875 -5.90625 C 3.550781 -5.90625 3.164062 -5.804688 2.8125 -5.609375 C 2.46875 -5.410156 2.191406 -5.117188 1.984375 -4.734375 C 1.785156 -4.359375 1.6875 -3.914062 1.6875 -3.40625 C 1.6875 -2.882812 1.785156 -2.429688 1.984375 -2.046875 C 2.191406 -1.671875 2.46875 -1.378906 2.8125 -1.171875 C 3.164062 -0.972656 3.550781 -0.875 3.96875 -0.875 C 4.382812 -0.875 4.765625 -0.972656 5.109375 -1.171875 C 5.460938 -1.378906 5.742188 -1.671875 5.953125 -2.046875 C 6.160156 -2.429688 6.265625 -2.882812 6.265625 -3.40625 Z M 6.265625 -3.40625 "/></g></g></g><g fill="#187b69" fill-opacity="1"><g transform="translate(105.515996, 39.060547)"><g><path d="M 1.53125 -7.875 C 1.320312 -7.875 1.140625 -7.945312 0.984375 -8.09375 C 0.835938 -8.238281 0.765625 -8.421875 0.765625 -8.640625 C 0.765625 -8.847656 0.835938 -9.023438 0.984375 -9.171875 C 1.140625 -9.328125 1.320312 -9.40625 1.53125 -9.40625 C 1.738281 -9.40625 1.914062 -9.328125 2.0625 -9.171875 C 2.207031 -9.023438 2.28125 -8.847656 2.28125 -8.640625 C 2.28125 -8.421875 2.207031 -8.238281 2.0625 -8.09375 C 1.914062 -7.945312 1.738281 -7.875 1.53125 -7.875 Z M 2.078125 -6.765625 L 2.078125 0 L 0.953125 0 L 0.953125 -6.765625 Z M 2.078125 -6.765625 "/></g></g></g><g fill="#187b69" fill-opacity="1"><g transform="translate(108.554935, 39.060547)"><g><path d="M 0.53125 -3.40625 C 0.53125 -4.101562 0.671875 -4.710938 0.953125 -5.234375 C 1.234375 -5.753906 1.617188 -6.160156 2.109375 -6.453125 C 2.597656 -6.742188 3.144531 -6.890625 3.75 -6.890625 C 4.34375 -6.890625 4.851562 -6.757812 5.28125 -6.5 C 5.71875 -6.25 6.046875 -5.925781 6.265625 -5.53125 L 6.265625 -6.765625 L 7.40625 -6.765625 L 7.40625 0 L 6.265625 0 L 6.265625 -1.265625 C 6.046875 -0.867188 5.710938 -0.539062 5.265625 -0.28125 C 4.828125 -0.0195312 4.316406 0.109375 3.734375 0.109375 C 3.128906 0.109375 2.582031 -0.0351562 2.09375 -0.328125 C 1.613281 -0.628906 1.234375 -1.046875 0.953125 -1.578125 C 0.671875 -2.117188 0.53125 -2.726562 0.53125 -3.40625 Z M 6.265625 -3.40625 C 6.265625 -3.914062 6.160156 -4.359375 5.953125 -4.734375 C 5.742188 -5.109375 5.460938 -5.394531 5.109375 -5.59375 C 4.765625 -5.800781 4.382812 -5.90625 3.96875 -5.90625 C 3.550781 -5.90625 3.164062 -5.804688 2.8125 -5.609375 C 2.46875 -5.410156 2.191406 -5.117188 1.984375 -4.734375 C 1.785156 -4.359375 1.6875 -3.914062 1.6875 -3.40625 C 1.6875 -2.882812 1.785156 -2.429688 1.984375 -2.046875 C 2.191406 -1.671875 2.46875 -1.378906 2.8125 -1.171875 C 3.164062 -0.972656 3.550781 -0.875 3.96875 -0.875 C 4.382812 -0.875 4.765625 -0.972656 5.109375 -1.171875 C 5.460938 -1.378906 5.742188 -1.671875 5.953125 -2.046875 C 6.160156 -2.429688 6.265625 -2.882812 6.265625 -3.40625 Z M 6.265625 -3.40625 "/></g></g></g><g clip-path="url(#fff17e5ac7)"><g fill="#187b69" fill-opacity="1"><g transform="translate(116.90584, 39.060547)"><g><path d="M 3.75 -6.890625 C 4.332031 -6.890625 4.84375 -6.757812 5.28125 -6.5 C 5.71875 -6.25 6.046875 -5.925781 6.265625 -5.53125 L 6.265625 -6.765625 L 7.40625 -6.765625 L 7.40625 0.140625 C 7.40625 0.765625 7.269531 1.316406 7 1.796875 C 6.738281 2.273438 6.363281 2.648438 5.875 2.921875 C 5.382812 3.203125 4.816406 3.34375 4.171875 3.34375 C 3.273438 3.34375 2.53125 3.128906 1.9375 2.703125 C 1.34375 2.285156 0.992188 1.710938 0.890625 0.984375 L 2 0.984375 C 2.125 1.398438 2.378906 1.734375 2.765625 1.984375 C 3.148438 2.234375 3.617188 2.359375 4.171875 2.359375 C 4.785156 2.359375 5.285156 2.164062 5.671875 1.78125 C 6.066406 1.394531 6.265625 0.847656 6.265625 0.140625 L 6.265625 -1.265625 C 6.046875 -0.878906 5.71875 -0.550781 5.28125 -0.28125 C 4.84375 -0.0195312 4.332031 0.109375 3.75 0.109375 C 3.144531 0.109375 2.597656 -0.0351562 2.109375 -0.328125 C 1.617188 -0.628906 1.234375 -1.046875 0.953125 -1.578125 C 0.671875 -2.117188 0.53125 -2.726562 0.53125 -3.40625 C 0.53125 -4.101562 0.671875 -4.710938 0.953125 -5.234375 C 1.234375 -5.753906 1.617188 -6.160156 2.109375 -6.453125 C 2.597656 -6.742188 3.144531 -6.890625 3.75 -6.890625 Z M 6.265625 -3.40625 C 6.265625 -3.914062 6.160156 -4.359375 5.953125 -4.734375 C 5.742188 -5.109375 5.460938 -5.394531 5.109375 -5.59375 C 4.765625 -5.800781 4.382812 -5.90625 3.96875 -5.90625 C 3.550781 -5.90625 3.164062 -5.804688 2.8125 -5.609375 C 2.46875 -5.410156 2.191406 -5.117188 1.984375 -4.734375 C 1.785156 -4.359375 1.6875 -3.914062 1.6875 -3.40625 C 1.6875 -2.882812 1.785156 -2.429688 1.984375 -2.046875 C 2.191406 -1.671875 2.46875 -1.378906 2.8125 -1.171875 C 3.164062 -0.972656 3.550781 -0.875 3.96875 -0.875 C 4.382812 -0.875 4.765625 -0.972656 5.109375 -1.171875 C 5.460938 -1.378906 5.742188 -1.671875 5.953125 -2.046875 C 6.160156 -2.429688 6.265625 -2.882812 6.265625 -3.40625 Z M 6.265625 -3.40625 "/></g></g></g></g><g fill="#187b69" fill-opacity="1"><g transform="translate(125.256746, 39.060547)"><g><path d="M 4.25 -6.890625 C 5.070312 -6.890625 5.738281 -6.640625 6.25 -6.140625 C 6.757812 -5.648438 7.015625 -4.929688 7.015625 -3.984375 L 7.015625 0 L 5.90625 0 L 5.90625 -3.828125 C 5.90625 -4.503906 5.734375 -5.019531 5.390625 -5.375 C 5.054688 -5.738281 4.597656 -5.921875 4.015625 -5.921875 C 3.421875 -5.921875 2.945312 -5.734375 2.59375 -5.359375 C 2.25 -4.992188 2.078125 -4.457031 2.078125 -3.75 L 2.078125 0 L 0.953125 0 L 0.953125 -6.765625 L 2.078125 -6.765625 L 2.078125 -5.8125 C 2.296875 -6.15625 2.597656 -6.421875 2.984375 -6.609375 C 3.367188 -6.796875 3.789062 -6.890625 4.25 -6.890625 Z M 4.25 -6.890625 "/></g></g></g><g fill="#187b69" fill-opacity="1"><g transform="translate(133.162929, 39.060547)"><g><path d="M 3.90625 0.109375 C 3.269531 0.109375 2.691406 -0.03125 2.171875 -0.3125 C 1.660156 -0.601562 1.257812 -1.015625 0.96875 -1.546875 C 0.675781 -2.078125 0.53125 -2.695312 0.53125 -3.40625 C 0.53125 -4.09375 0.679688 -4.703125 0.984375 -5.234375 C 1.285156 -5.765625 1.691406 -6.171875 2.203125 -6.453125 C 2.722656 -6.742188 3.304688 -6.890625 3.953125 -6.890625 C 4.597656 -6.890625 5.175781 -6.742188 5.6875 -6.453125 C 6.207031 -6.171875 6.617188 -5.765625 6.921875 -5.234375 C 7.222656 -4.710938 7.375 -4.101562 7.375 -3.40625 C 7.375 -2.695312 7.21875 -2.078125 6.90625 -1.546875 C 6.601562 -1.015625 6.1875 -0.601562 5.65625 -0.3125 C 5.132812 -0.03125 4.550781 0.109375 3.90625 0.109375 Z M 3.90625 -0.875 C 4.3125 -0.875 4.691406 -0.96875 5.046875 -1.15625 C 5.398438 -1.351562 5.6875 -1.640625 5.90625 -2.015625 C 6.125 -2.390625 6.234375 -2.851562 6.234375 -3.40625 C 6.234375 -3.945312 6.125 -4.40625 5.90625 -4.78125 C 5.695312 -5.164062 5.414062 -5.445312 5.0625 -5.625 C 4.71875 -5.8125 4.34375 -5.90625 3.9375 -5.90625 C 3.53125 -5.90625 3.15625 -5.8125 2.8125 -5.625 C 2.46875 -5.445312 2.191406 -5.164062 1.984375 -4.78125 C 1.785156 -4.40625 1.6875 -3.945312 1.6875 -3.40625 C 1.6875 -2.851562 1.785156 -2.382812 1.984375 -2 C 2.179688 -1.625 2.445312 -1.34375 2.78125 -1.15625 C 3.125 -0.96875 3.5 -0.875 3.90625 -0.875 Z M 5.171875 -8.78125 L 2.53125 -7.375 L 2.53125 -8.21875 L 5.171875 -9.765625 Z M 5.171875 -8.78125 "/></g></g></g><g fill="#187b69" fill-opacity="1"><g transform="translate(141.069112, 39.060547)"><g><path d="M 3.34375 0.109375 C 2.832031 0.109375 2.367188 0.0195312 1.953125 -0.15625 C 1.535156 -0.332031 1.207031 -0.578125 0.96875 -0.890625 C 0.738281 -1.210938 0.609375 -1.578125 0.578125 -1.984375 L 1.75 -1.984375 C 1.78125 -1.648438 1.9375 -1.375 2.21875 -1.15625 C 2.5 -0.945312 2.875 -0.84375 3.34375 -0.84375 C 3.769531 -0.84375 4.101562 -0.9375 4.34375 -1.125 C 4.59375 -1.3125 4.71875 -1.550781 4.71875 -1.84375 C 4.71875 -2.132812 4.585938 -2.351562 4.328125 -2.5 C 4.066406 -2.644531 3.660156 -2.785156 3.109375 -2.921875 C 2.597656 -3.054688 2.179688 -3.191406 1.859375 -3.328125 C 1.546875 -3.460938 1.273438 -3.664062 1.046875 -3.9375 C 0.828125 -4.207031 0.71875 -4.5625 0.71875 -5 C 0.71875 -5.34375 0.816406 -5.65625 1.015625 -5.9375 C 1.222656 -6.226562 1.515625 -6.457031 1.890625 -6.625 C 2.273438 -6.800781 2.710938 -6.890625 3.203125 -6.890625 C 3.953125 -6.890625 4.554688 -6.695312 5.015625 -6.3125 C 5.472656 -5.9375 5.722656 -5.421875 5.765625 -4.765625 L 4.640625 -4.765625 C 4.609375 -5.117188 4.460938 -5.398438 4.203125 -5.609375 C 3.941406 -5.828125 3.59375 -5.9375 3.15625 -5.9375 C 2.757812 -5.9375 2.441406 -5.847656 2.203125 -5.671875 C 1.960938 -5.492188 1.84375 -5.269531 1.84375 -5 C 1.84375 -4.769531 1.914062 -4.582031 2.0625 -4.4375 C 2.207031 -4.300781 2.382812 -4.1875 2.59375 -4.09375 C 2.8125 -4.007812 3.117188 -3.914062 3.515625 -3.8125 C 3.992188 -3.675781 4.382812 -3.539062 4.6875 -3.40625 C 5 -3.28125 5.265625 -3.085938 5.484375 -2.828125 C 5.703125 -2.578125 5.816406 -2.25 5.828125 -1.84375 C 5.828125 -1.46875 5.722656 -1.128906 5.515625 -0.828125 C 5.304688 -0.535156 5.015625 -0.304688 4.640625 -0.140625 C 4.265625 0.0234375 3.832031 0.109375 3.34375 0.109375 Z M 3.34375 0.109375 "/></g></g></g><g fill="#187b69" fill-opacity="1"><g transform="translate(147.517593, 39.060547)"><g><path d="M 2.328125 -5.84375 L 2.328125 -1.859375 C 2.328125 -1.523438 2.394531 -1.289062 2.53125 -1.15625 C 2.675781 -1.019531 2.921875 -0.953125 3.265625 -0.953125 L 4.09375 -0.953125 L 4.09375 0 L 3.078125 0 C 2.453125 0 1.984375 -0.140625 1.671875 -0.421875 C 1.359375 -0.710938 1.203125 -1.191406 1.203125 -1.859375 L 1.203125 -5.84375 L 0.328125 -5.84375 L 0.328125 -6.765625 L 1.203125 -6.765625 L 1.203125 -8.484375 L 2.328125 -8.484375 L 2.328125 -6.765625 L 4.09375 -6.765625 L 4.09375 -5.84375 Z M 2.328125 -5.84375 "/></g></g></g><g fill="#187b69" fill-opacity="1"><g transform="translate(152.014234, 39.060547)"><g><path d="M 1.53125 -7.875 C 1.320312 -7.875 1.140625 -7.945312 0.984375 -8.09375 C 0.835938 -8.238281 0.765625 -8.421875 0.765625 -8.640625 C 0.765625 -8.847656 0.835938 -9.023438 0.984375 -9.171875 C 1.140625 -9.328125 1.320312 -9.40625 1.53125 -9.40625 C 1.738281 -9.40625 1.914062 -9.328125 2.0625 -9.171875 C 2.207031 -9.023438 2.28125 -8.847656 2.28125 -8.640625 C 2.28125 -8.421875 2.207031 -8.238281 2.0625 -8.09375 C 1.914062 -7.945312 1.738281 -7.875 1.53125 -7.875 Z M 2.078125 -6.765625 L 2.078125 0 L 0.953125 0 L 0.953125 -6.765625 Z M 2.078125 -6.765625 "/></g></g></g><g fill="#187b69" fill-opacity="1"><g transform="translate(155.053173, 39.060547)"><g><path d="M 0.53125 -3.40625 C 0.53125 -4.101562 0.671875 -4.710938 0.953125 -5.234375 C 1.234375 -5.753906 1.625 -6.160156 2.125 -6.453125 C 2.625 -6.742188 3.191406 -6.890625 3.828125 -6.890625 C 4.660156 -6.890625 5.347656 -6.6875 5.890625 -6.28125 C 6.429688 -5.875 6.785156 -5.3125 6.953125 -4.59375 L 5.75 -4.59375 C 5.632812 -5.007812 5.410156 -5.335938 5.078125 -5.578125 C 4.742188 -5.816406 4.328125 -5.9375 3.828125 -5.9375 C 3.191406 -5.9375 2.675781 -5.710938 2.28125 -5.265625 C 1.882812 -4.828125 1.6875 -4.207031 1.6875 -3.40625 C 1.6875 -2.582031 1.882812 -1.945312 2.28125 -1.5 C 2.675781 -1.0625 3.191406 -0.84375 3.828125 -0.84375 C 4.328125 -0.84375 4.738281 -0.957031 5.0625 -1.1875 C 5.394531 -1.414062 5.625 -1.742188 5.75 -2.171875 L 6.953125 -2.171875 C 6.773438 -1.484375 6.414062 -0.929688 5.875 -0.515625 C 5.332031 -0.0976562 4.648438 0.109375 3.828125 0.109375 C 3.191406 0.109375 2.625 -0.03125 2.125 -0.3125 C 1.625 -0.601562 1.234375 -1.007812 0.953125 -1.53125 C 0.671875 -2.0625 0.53125 -2.6875 0.53125 -3.40625 Z M 0.53125 -3.40625 "/></g></g></g><g fill="#187b69" fill-opacity="1"><g transform="translate(162.551701, 39.060547)"><g><path d="M 3.90625 0.109375 C 3.269531 0.109375 2.691406 -0.03125 2.171875 -0.3125 C 1.660156 -0.601562 1.257812 -1.015625 0.96875 -1.546875 C 0.675781 -2.078125 0.53125 -2.695312 0.53125 -3.40625 C 0.53125 -4.09375 0.679688 -4.703125 0.984375 -5.234375 C 1.285156 -5.765625 1.691406 -6.171875 2.203125 -6.453125 C 2.722656 -6.742188 3.304688 -6.890625 3.953125 -6.890625 C 4.597656 -6.890625 5.175781 -6.742188 5.6875 -6.453125 C 6.207031 -6.171875 6.617188 -5.765625 6.921875 -5.234375 C 7.222656 -4.710938 7.375 -4.101562 7.375 -3.40625 C 7.375 -2.695312 7.21875 -2.078125 6.90625 -1.546875 C 6.601562 -1.015625 6.1875 -0.601562 5.65625 -0.3125 C 5.132812 -0.03125 4.550781 0.109375 3.90625 0.109375 Z M 3.90625 -0.875 C 4.3125 -0.875 4.691406 -0.96875 5.046875 -1.15625 C 5.398438 -1.351562 5.6875 -1.640625 5.90625 -2.015625 C 6.125 -2.390625 6.234375 -2.851562 6.234375 -3.40625 C 6.234375 -3.945312 6.125 -4.40625 5.90625 -4.78125 C 5.695312 -5.164062 5.414062 -5.445312 5.0625 -5.625 C 4.71875 -5.8125 4.34375 -5.90625 3.9375 -5.90625 C 3.53125 -5.90625 3.15625 -5.8125 2.8125 -5.625 C 2.46875 -5.445312 2.191406 -5.164062 1.984375 -4.78125 C 1.785156 -4.40625 1.6875 -3.945312 1.6875 -3.40625 C 1.6875 -2.851562 1.785156 -2.382812 1.984375 -2 C 2.179688 -1.625 2.445312 -1.34375 2.78125 -1.15625 C 3.125 -0.96875 3.5 -0.875 3.90625 -0.875 Z M 3.90625 -0.875 "/></g></g></g><g fill="#187b69" fill-opacity="1"><g transform="translate(170.457884, 39.060547)"><g/></g></g><g clip-path="url(#08bfb9db16)"><g fill="#187b69" fill-opacity="1"><g transform="translate(173.756251, 39.060547)"><g><path d="M 2.078125 -5.53125 C 2.296875 -5.914062 2.625 -6.238281 3.0625 -6.5 C 3.507812 -6.757812 4.023438 -6.890625 4.609375 -6.890625 C 5.210938 -6.890625 5.757812 -6.742188 6.25 -6.453125 C 6.738281 -6.160156 7.125 -5.753906 7.40625 -5.234375 C 7.6875 -4.710938 7.828125 -4.101562 7.828125 -3.40625 C 7.828125 -2.726562 7.6875 -2.117188 7.40625 -1.578125 C 7.125 -1.046875 6.738281 -0.628906 6.25 -0.328125 C 5.757812 -0.0351562 5.210938 0.109375 4.609375 0.109375 C 4.035156 0.109375 3.523438 -0.0195312 3.078125 -0.28125 C 2.640625 -0.539062 2.304688 -0.863281 2.078125 -1.25 L 2.078125 3.21875 L 0.953125 3.21875 L 0.953125 -6.765625 L 2.078125 -6.765625 Z M 6.671875 -3.40625 C 6.671875 -3.914062 6.566406 -4.359375 6.359375 -4.734375 C 6.160156 -5.117188 5.882812 -5.410156 5.53125 -5.609375 C 5.175781 -5.804688 4.789062 -5.90625 4.375 -5.90625 C 3.957031 -5.90625 3.570312 -5.800781 3.21875 -5.59375 C 2.875 -5.394531 2.597656 -5.101562 2.390625 -4.71875 C 2.179688 -4.34375 2.078125 -3.90625 2.078125 -3.40625 C 2.078125 -2.882812 2.179688 -2.429688 2.390625 -2.046875 C 2.597656 -1.671875 2.875 -1.378906 3.21875 -1.171875 C 3.570312 -0.972656 3.957031 -0.875 4.375 -0.875 C 4.789062 -0.875 5.175781 -0.972656 5.53125 -1.171875 C 5.882812 -1.378906 6.160156 -1.671875 6.359375 -2.046875 C 6.566406 -2.429688 6.671875 -2.882812 6.671875 -3.40625 Z M 6.671875 -3.40625 "/></g></g></g></g><g fill="#187b69" fill-opacity="1"><g transform="translate(182.107157, 39.060547)"><g><path d="M 3.90625 0.109375 C 3.269531 0.109375 2.691406 -0.03125 2.171875 -0.3125 C 1.660156 -0.601562 1.257812 -1.015625 0.96875 -1.546875 C 0.675781 -2.078125 0.53125 -2.695312 0.53125 -3.40625 C 0.53125 -4.09375 0.679688 -4.703125 0.984375 -5.234375 C 1.285156 -5.765625 1.691406 -6.171875 2.203125 -6.453125 C 2.722656 -6.742188 3.304688 -6.890625 3.953125 -6.890625 C 4.597656 -6.890625 5.175781 -6.742188 5.6875 -6.453125 C 6.207031 -6.171875 6.617188 -5.765625 6.921875 -5.234375 C 7.222656 -4.710938 7.375 -4.101562 7.375 -3.40625 C 7.375 -2.695312 7.21875 -2.078125 6.90625 -1.546875 C 6.601562 -1.015625 6.1875 -0.601562 5.65625 -0.3125 C 5.132812 -0.03125 4.550781 0.109375 3.90625 0.109375 Z M 3.90625 -0.875 C 4.3125 -0.875 4.691406 -0.96875 5.046875 -1.15625 C 5.398438 -1.351562 5.6875 -1.640625 5.90625 -2.015625 C 6.125 -2.390625 6.234375 -2.851562 6.234375 -3.40625 C 6.234375 -3.945312 6.125 -4.40625 5.90625 -4.78125 C 5.695312 -5.164062 5.414062 -5.445312 5.0625 -5.625 C 4.71875 -5.8125 4.34375 -5.90625 3.9375 -5.90625 C 3.53125 -5.90625 3.15625 -5.8125 2.8125 -5.625 C 2.46875 -5.445312 2.191406 -5.164062 1.984375 -4.78125 C 1.785156 -4.40625 1.6875 -3.945312 1.6875 -3.40625 C 1.6875 -2.851562 1.785156 -2.382812 1.984375 -2 C 2.179688 -1.625 2.445312 -1.34375 2.78125 -1.15625 C 3.125 -0.96875 3.5 -0.875 3.90625 -0.875 Z M 3.90625 -0.875 "/></g></g></g><g fill="#187b69" fill-opacity="1"><g transform="translate(190.01334, 39.060547)"><g><path d="M 2.078125 -5.671875 C 2.273438 -6.054688 2.554688 -6.351562 2.921875 -6.5625 C 3.285156 -6.78125 3.734375 -6.890625 4.265625 -6.890625 L 4.265625 -5.734375 L 3.96875 -5.734375 C 2.707031 -5.734375 2.078125 -5.050781 2.078125 -3.6875 L 2.078125 0 L 0.953125 0 L 0.953125 -6.765625 L 2.078125 -6.765625 Z M 2.078125 -5.671875 "/></g></g></g><g fill="#187b69" fill-opacity="1"><g transform="translate(194.621169, 39.060547)"><g/></g></g><g fill="#187b69" fill-opacity="1"><g transform="translate(197.919536, 39.060547)"><g><path d="M 1.53125 -7.875 C 1.320312 -7.875 1.140625 -7.945312 0.984375 -8.09375 C 0.835938 -8.238281 0.765625 -8.421875 0.765625 -8.640625 C 0.765625 -8.847656 0.835938 -9.023438 0.984375 -9.171875 C 1.140625 -9.328125 1.320312 -9.40625 1.53125 -9.40625 C 1.738281 -9.40625 1.914062 -9.328125 2.0625 -9.171875 C 2.207031 -9.023438 2.28125 -8.847656 2.28125 -8.640625 C 2.28125 -8.421875 2.207031 -8.238281 2.0625 -8.09375 C 1.914062 -7.945312 1.738281 -7.875 1.53125 -7.875 Z M 2.078125 -6.765625 L 2.078125 0 L 0.953125 0 L 0.953125 -6.765625 Z M 2.078125 -6.765625 "/></g></g></g><g fill="#187b69" fill-opacity="1"><g transform="translate(200.958476, 39.060547)"><g><path d="M 9.09375 -6.890625 C 9.625 -6.890625 10.09375 -6.78125 10.5 -6.5625 C 10.914062 -6.34375 11.242188 -6.015625 11.484375 -5.578125 C 11.722656 -5.148438 11.84375 -4.617188 11.84375 -3.984375 L 11.84375 0 L 10.734375 0 L 10.734375 -3.828125 C 10.734375 -4.503906 10.566406 -5.019531 10.234375 -5.375 C 9.898438 -5.738281 9.445312 -5.921875 8.875 -5.921875 C 8.289062 -5.921875 7.820312 -5.734375 7.46875 -5.359375 C 7.125 -4.984375 6.953125 -4.441406 6.953125 -3.734375 L 6.953125 0 L 5.84375 0 L 5.84375 -3.828125 C 5.84375 -4.503906 5.675781 -5.019531 5.34375 -5.375 C 5.007812 -5.738281 4.554688 -5.921875 3.984375 -5.921875 C 3.398438 -5.921875 2.9375 -5.734375 2.59375 -5.359375 C 2.25 -4.984375 2.078125 -4.441406 2.078125 -3.734375 L 2.078125 0 L 0.953125 0 L 0.953125 -6.765625 L 2.078125 -6.765625 L 2.078125 -5.796875 C 2.296875 -6.148438 2.59375 -6.421875 2.96875 -6.609375 C 3.34375 -6.796875 3.757812 -6.890625 4.21875 -6.890625 C 4.78125 -6.890625 5.28125 -6.757812 5.71875 -6.5 C 6.15625 -6.25 6.484375 -5.878906 6.703125 -5.390625 C 6.890625 -5.867188 7.203125 -6.238281 7.640625 -6.5 C 8.078125 -6.757812 8.5625 -6.890625 9.09375 -6.890625 Z M 9.09375 -6.890625 "/></g></g></g><g fill="#187b69" fill-opacity="1"><g transform="translate(213.682489, 39.060547)"><g><path d="M 0.53125 -3.40625 C 0.53125 -4.101562 0.671875 -4.710938 0.953125 -5.234375 C 1.234375 -5.753906 1.617188 -6.160156 2.109375 -6.453125 C 2.597656 -6.742188 3.144531 -6.890625 3.75 -6.890625 C 4.34375 -6.890625 4.851562 -6.757812 5.28125 -6.5 C 5.71875 -6.25 6.046875 -5.925781 6.265625 -5.53125 L 6.265625 -6.765625 L 7.40625 -6.765625 L 7.40625 0 L 6.265625 0 L 6.265625 -1.265625 C 6.046875 -0.867188 5.710938 -0.539062 5.265625 -0.28125 C 4.828125 -0.0195312 4.316406 0.109375 3.734375 0.109375 C 3.128906 0.109375 2.582031 -0.0351562 2.09375 -0.328125 C 1.613281 -0.628906 1.234375 -1.046875 0.953125 -1.578125 C 0.671875 -2.117188 0.53125 -2.726562 0.53125 -3.40625 Z M 6.265625 -3.40625 C 6.265625 -3.914062 6.160156 -4.359375 5.953125 -4.734375 C 5.742188 -5.109375 5.460938 -5.394531 5.109375 -5.59375 C 4.765625 -5.800781 4.382812 -5.90625 3.96875 -5.90625 C 3.550781 -5.90625 3.164062 -5.804688 2.8125 -5.609375 C 2.46875 -5.410156 2.191406 -5.117188 1.984375 -4.734375 C 1.785156 -4.359375 1.6875 -3.914062 1.6875 -3.40625 C 1.6875 -2.882812 1.785156 -2.429688 1.984375 -2.046875 C 2.191406 -1.671875 2.46875 -1.378906 2.8125 -1.171875 C 3.164062 -0.972656 3.550781 -0.875 3.96875 -0.875 C 4.382812 -0.875 4.765625 -0.972656 5.109375 -1.171875 C 5.460938 -1.378906 5.742188 -1.671875 5.953125 -2.046875 C 6.160156 -2.429688 6.265625 -2.882812 6.265625 -3.40625 Z M 5.390625 -8.6875 L 2.75 -7.28125 L 2.75 -8.125 L 5.390625 -9.671875 Z M 5.390625 -8.6875 "/></g></g></g><g clip-path="url(#4b8b0a4c87)"><g fill="#187b69" fill-opacity="1"><g transform="translate(222.033395, 39.060547)"><g><path d="M 3.75 -6.890625 C 4.332031 -6.890625 4.84375 -6.757812 5.28125 -6.5 C 5.71875 -6.25 6.046875 -5.925781 6.265625 -5.53125 L 6.265625 -6.765625 L 7.40625 -6.765625 L 7.40625 0.140625 C 7.40625 0.765625 7.269531 1.316406 7 1.796875 C 6.738281 2.273438 6.363281 2.648438 5.875 2.921875 C 5.382812 3.203125 4.816406 3.34375 4.171875 3.34375 C 3.273438 3.34375 2.53125 3.128906 1.9375 2.703125 C 1.34375 2.285156 0.992188 1.710938 0.890625 0.984375 L 2 0.984375 C 2.125 1.398438 2.378906 1.734375 2.765625 1.984375 C 3.148438 2.234375 3.617188 2.359375 4.171875 2.359375 C 4.785156 2.359375 5.285156 2.164062 5.671875 1.78125 C 6.066406 1.394531 6.265625 0.847656 6.265625 0.140625 L 6.265625 -1.265625 C 6.046875 -0.878906 5.71875 -0.550781 5.28125 -0.28125 C 4.84375 -0.0195312 4.332031 0.109375 3.75 0.109375 C 3.144531 0.109375 2.597656 -0.0351562 2.109375 -0.328125 C 1.617188 -0.628906 1.234375 -1.046875 0.953125 -1.578125 C 0.671875 -2.117188 0.53125 -2.726562 0.53125 -3.40625 C 0.53125 -4.101562 0.671875 -4.710938 0.953125 -5.234375 C 1.234375 -5.753906 1.617188 -6.160156 2.109375 -6.453125 C 2.597656 -6.742188 3.144531 -6.890625 3.75 -6.890625 Z M 6.265625 -3.40625 C 6.265625 -3.914062 6.160156 -4.359375 5.953125 -4.734375 C 5.742188 -5.109375 5.460938 -5.394531 5.109375 -5.59375 C 4.765625 -5.800781 4.382812 -5.90625 3.96875 -5.90625 C 3.550781 -5.90625 3.164062 -5.804688 2.8125 -5.609375 C 2.46875 -5.410156 2.191406 -5.117188 1.984375 -4.734375 C 1.785156 -4.359375 1.6875 -3.914062 1.6875 -3.40625 C 1.6875 -2.882812 1.785156 -2.429688 1.984375 -2.046875 C 2.191406 -1.671875 2.46875 -1.378906 2.8125 -1.171875 C 3.164062 -0.972656 3.550781 -0.875 3.96875 -0.875 C 4.382812 -0.875 4.765625 -0.972656 5.109375 -1.171875 C 5.460938 -1.378906 5.742188 -1.671875 5.953125 -2.046875 C 6.160156 -2.429688 6.265625 -2.882812 6.265625 -3.40625 Z M 6.265625 -3.40625 "/></g></g></g></g><g fill="#187b69" fill-opacity="1"><g transform="translate(230.3843, 39.060547)"><g><path d="M 7.125 -3.640625 C 7.125 -3.429688 7.113281 -3.207031 7.09375 -2.96875 L 1.6875 -2.96875 C 1.726562 -2.300781 1.953125 -1.78125 2.359375 -1.40625 C 2.773438 -1.03125 3.28125 -0.84375 3.875 -0.84375 C 4.363281 -0.84375 4.769531 -0.953125 5.09375 -1.171875 C 5.425781 -1.398438 5.65625 -1.707031 5.78125 -2.09375 L 7 -2.09375 C 6.8125 -1.4375 6.445312 -0.90625 5.90625 -0.5 C 5.363281 -0.09375 4.6875 0.109375 3.875 0.109375 C 3.238281 0.109375 2.664062 -0.03125 2.15625 -0.3125 C 1.644531 -0.601562 1.242188 -1.015625 0.953125 -1.546875 C 0.671875 -2.078125 0.53125 -2.695312 0.53125 -3.40625 C 0.53125 -4.101562 0.671875 -4.710938 0.953125 -5.234375 C 1.234375 -5.765625 1.625 -6.171875 2.125 -6.453125 C 2.632812 -6.742188 3.21875 -6.890625 3.875 -6.890625 C 4.519531 -6.890625 5.085938 -6.75 5.578125 -6.46875 C 6.078125 -6.1875 6.457031 -5.800781 6.71875 -5.3125 C 6.988281 -4.820312 7.125 -4.265625 7.125 -3.640625 Z M 5.96875 -3.875 C 5.96875 -4.3125 5.875 -4.679688 5.6875 -4.984375 C 5.5 -5.296875 5.238281 -5.53125 4.90625 -5.6875 C 4.582031 -5.851562 4.222656 -5.9375 3.828125 -5.9375 C 3.265625 -5.9375 2.78125 -5.753906 2.375 -5.390625 C 1.976562 -5.023438 1.75 -4.519531 1.6875 -3.875 Z M 5.96875 -3.875 "/></g></g></g><g fill="#187b69" fill-opacity="1"><g transform="translate(238.043415, 39.060547)"><g><path d="M 4.25 -6.890625 C 5.070312 -6.890625 5.738281 -6.640625 6.25 -6.140625 C 6.757812 -5.648438 7.015625 -4.929688 7.015625 -3.984375 L 7.015625 0 L 5.90625 0 L 5.90625 -3.828125 C 5.90625 -4.503906 5.734375 -5.019531 5.390625 -5.375 C 5.054688 -5.738281 4.597656 -5.921875 4.015625 -5.921875 C 3.421875 -5.921875 2.945312 -5.734375 2.59375 -5.359375 C 2.25 -4.992188 2.078125 -4.457031 2.078125 -3.75 L 2.078125 0 L 0.953125 0 L 0.953125 -6.765625 L 2.078125 -6.765625 L 2.078125 -5.8125 C 2.296875 -6.15625 2.597656 -6.421875 2.984375 -6.609375 C 3.367188 -6.796875 3.789062 -6.890625 4.25 -6.890625 Z M 4.25 -6.890625 "/></g></g></g><g fill="#187b69" fill-opacity="1"><g transform="translate(245.949598, 39.060547)"><g><path d="M 7.125 -3.640625 C 7.125 -3.429688 7.113281 -3.207031 7.09375 -2.96875 L 1.6875 -2.96875 C 1.726562 -2.300781 1.953125 -1.78125 2.359375 -1.40625 C 2.773438 -1.03125 3.28125 -0.84375 3.875 -0.84375 C 4.363281 -0.84375 4.769531 -0.953125 5.09375 -1.171875 C 5.425781 -1.398438 5.65625 -1.707031 5.78125 -2.09375 L 7 -2.09375 C 6.8125 -1.4375 6.445312 -0.90625 5.90625 -0.5 C 5.363281 -0.09375 4.6875 0.109375 3.875 0.109375 C 3.238281 0.109375 2.664062 -0.03125 2.15625 -0.3125 C 1.644531 -0.601562 1.242188 -1.015625 0.953125 -1.546875 C 0.671875 -2.078125 0.53125 -2.695312 0.53125 -3.40625 C 0.53125 -4.101562 0.671875 -4.710938 0.953125 -5.234375 C 1.234375 -5.765625 1.625 -6.171875 2.125 -6.453125 C 2.632812 -6.742188 3.21875 -6.890625 3.875 -6.890625 C 4.519531 -6.890625 5.085938 -6.75 5.578125 -6.46875 C 6.078125 -6.1875 6.457031 -5.800781 6.71875 -5.3125 C 6.988281 -4.820312 7.125 -4.265625 7.125 -3.640625 Z M 5.96875 -3.875 C 5.96875 -4.3125 5.875 -4.679688 5.6875 -4.984375 C 5.5 -5.296875 5.238281 -5.53125 4.90625 -5.6875 C 4.582031 -5.851562 4.222656 -5.9375 3.828125 -5.9375 C 3.265625 -5.9375 2.78125 -5.753906 2.375 -5.390625 C 1.976562 -5.023438 1.75 -4.519531 1.6875 -3.875 Z M 5.96875 -3.875 "/></g></g></g><g fill="#187b69" fill-opacity="1"><g transform="translate(253.608713, 39.060547)"><g><path d="M 3.34375 0.109375 C 2.832031 0.109375 2.367188 0.0195312 1.953125 -0.15625 C 1.535156 -0.332031 1.207031 -0.578125 0.96875 -0.890625 C 0.738281 -1.210938 0.609375 -1.578125 0.578125 -1.984375 L 1.75 -1.984375 C 1.78125 -1.648438 1.9375 -1.375 2.21875 -1.15625 C 2.5 -0.945312 2.875 -0.84375 3.34375 -0.84375 C 3.769531 -0.84375 4.101562 -0.9375 4.34375 -1.125 C 4.59375 -1.3125 4.71875 -1.550781 4.71875 -1.84375 C 4.71875 -2.132812 4.585938 -2.351562 4.328125 -2.5 C 4.066406 -2.644531 3.660156 -2.785156 3.109375 -2.921875 C 2.597656 -3.054688 2.179688 -3.191406 1.859375 -3.328125 C 1.546875 -3.460938 1.273438 -3.664062 1.046875 -3.9375 C 0.828125 -4.207031 0.71875 -4.5625 0.71875 -5 C 0.71875 -5.34375 0.816406 -5.65625 1.015625 -5.9375 C 1.222656 -6.226562 1.515625 -6.457031 1.890625 -6.625 C 2.273438 -6.800781 2.710938 -6.890625 3.203125 -6.890625 C 3.953125 -6.890625 4.554688 -6.695312 5.015625 -6.3125 C 5.472656 -5.9375 5.722656 -5.421875 5.765625 -4.765625 L 4.640625 -4.765625 C 4.609375 -5.117188 4.460938 -5.398438 4.203125 -5.609375 C 3.941406 -5.828125 3.59375 -5.9375 3.15625 -5.9375 C 2.757812 -5.9375 2.441406 -5.847656 2.203125 -5.671875 C 1.960938 -5.492188 1.84375 -5.269531 1.84375 -5 C 1.84375 -4.769531 1.914062 -4.582031 2.0625 -4.4375 C 2.207031 -4.300781 2.382812 -4.1875 2.59375 -4.09375 C 2.8125 -4.007812 3.117188 -3.914062 3.515625 -3.8125 C 3.992188 -3.675781 4.382812 -3.539062 4.6875 -3.40625 C 5 -3.28125 5.265625 -3.085938 5.484375 -2.828125 C 5.703125 -2.578125 5.816406 -2.25 5.828125 -1.84375 C 5.828125 -1.46875 5.722656 -1.128906 5.515625 -0.828125 C 5.304688 -0.535156 5.015625 -0.304688 4.640625 -0.140625 C 4.265625 0.0234375 3.832031 0.109375 3.34375 0.109375 Z M 3.34375 0.109375 "/></g></g></g></svg>